<mxfile host="app.diagrams.net" modified="2021-05-19T14:41:49.674Z" agent="5.0 (Windows NT 10.0; Win64; x64) AppleWebKit/537.36 (KHTML, like Gecko) Chrome/90.0.4430.93 Safari/537.36 OPR/76.0.4017.123 (Edition Yx 02)" etag="4rvxcS7WY5X6yoydOe5u" version="14.4.4" type="github">
  <diagram name="Page-1" id="e7e014a7-5840-1c2e-5031-d8a46d1fe8dd">
    <mxGraphModel dx="953" dy="527" grid="1" gridSize="10" guides="1" tooltips="1" connect="1" arrows="1" fold="1" page="1" pageScale="1" pageWidth="1169" pageHeight="826" background="#ffffff" math="0" shadow="0">
      <root>
        <mxCell id="0" />
        <mxCell id="1" parent="0" />
        <mxCell id="2" value="Заказчик" style="swimlane;whiteSpace=wrap;dashed=1;" parent="1" vertex="1">
          <mxGeometry x="164.5" y="128" width="175.5" height="570" as="geometry" />
        </mxCell>
        <mxCell id="p0NmJzQmyu0jmDwwAuts-42" value="Initial requirements &lt;br&gt;document" style="pointerEvents=1;shadow=0;dashed=0;html=1;strokeColor=none;fillColor=#505050;labelPosition=center;verticalLabelPosition=bottom;verticalAlign=top;outlineConnect=0;align=center;shape=mxgraph.office.concepts.document_shared;" vertex="1" parent="2">
          <mxGeometry x="66.75" y="42" width="52" height="53" as="geometry" />
        </mxCell>
        <mxCell id="p0NmJzQmyu0jmDwwAuts-47" value="Project overview&lt;br&gt;document" style="pointerEvents=1;shadow=0;dashed=0;html=1;strokeColor=none;fillColor=#505050;labelPosition=center;verticalLabelPosition=bottom;verticalAlign=top;outlineConnect=0;align=center;shape=mxgraph.office.concepts.document_shared;" vertex="1" parent="2">
          <mxGeometry x="66.75" y="172" width="52" height="53" as="geometry" />
        </mxCell>
        <mxCell id="3" value="Менеджмент R4S" style="swimlane;whiteSpace=wrap;dashed=1;" parent="1" vertex="1">
          <mxGeometry x="350" y="128" width="190" height="570" as="geometry" />
        </mxCell>
        <mxCell id="p0NmJzQmyu0jmDwwAuts-45" value="Project overview&lt;br&gt;document" style="pointerEvents=1;shadow=0;dashed=0;html=1;strokeColor=none;fillColor=#505050;labelPosition=center;verticalLabelPosition=bottom;verticalAlign=top;outlineConnect=0;align=center;shape=mxgraph.office.concepts.document_shared;" vertex="1" parent="3">
          <mxGeometry x="63" y="172" width="52" height="53" as="geometry" />
        </mxCell>
        <mxCell id="p0NmJzQmyu0jmDwwAuts-49" value="" style="shape=image;html=1;verticalAlign=top;verticalLabelPosition=bottom;labelBackgroundColor=#ffffff;imageAspect=0;aspect=fixed;image=https://cdn4.iconfinder.com/data/icons/music-ui-solid-24px/24/repeat_replay_arrow_loop_cycle-2-128.png" vertex="1" parent="3">
          <mxGeometry x="-30" y="182" width="50" height="50" as="geometry" />
        </mxCell>
        <mxCell id="p0NmJzQmyu0jmDwwAuts-57" value="Statement of work&lt;br&gt;resource calculating" style="shape=image;html=1;verticalAlign=top;verticalLabelPosition=bottom;labelBackgroundColor=#ffffff;imageAspect=0;aspect=fixed;image=https://cdn4.iconfinder.com/data/icons/finance-and-banking-free/64/Finance_finance_calculator-128.png;dashed=1;" vertex="1" parent="3">
          <mxGeometry x="54" y="312" width="70" height="70" as="geometry" />
        </mxCell>
        <mxCell id="4" value="Команда" style="swimlane;whiteSpace=wrap;dashed=1;" parent="1" vertex="1">
          <mxGeometry x="550" y="128" width="180" height="570" as="geometry" />
        </mxCell>
        <mxCell id="p0NmJzQmyu0jmDwwAuts-41" value="&lt;b&gt;Comments&lt;/b&gt;" style="text;html=1;strokeColor=none;fillColor=none;align=center;verticalAlign=middle;whiteSpace=wrap;rounded=0;" vertex="1" parent="1">
          <mxGeometry x="900" y="120" width="120" height="42" as="geometry" />
        </mxCell>
        <mxCell id="p0NmJzQmyu0jmDwwAuts-43" value="" style="shape=flexArrow;endArrow=classic;html=1;fillColor=#d5e8d4;strokeColor=#82b366;" edge="1" parent="1">
          <mxGeometry width="50" height="50" relative="1" as="geometry">
            <mxPoint x="300" y="210" as="sourcePoint" />
            <mxPoint x="390" y="210" as="targetPoint" />
          </mxGeometry>
        </mxCell>
        <mxCell id="p0NmJzQmyu0jmDwwAuts-44" value="" style="shape=image;html=1;verticalAlign=top;verticalLabelPosition=bottom;labelBackgroundColor=#ffffff;imageAspect=0;aspect=fixed;image=https://cdn3.iconfinder.com/data/icons/business-and-education-1/512/247_recruitment_search_find_human_resource_people-128.png" vertex="1" parent="1">
          <mxGeometry x="920" y="380" width="118" height="118" as="geometry" />
        </mxCell>
        <mxCell id="p0NmJzQmyu0jmDwwAuts-58" value="" style="shape=flexArrow;endArrow=classic;html=1;fillColor=#d5e8d4;strokeColor=#82b366;" edge="1" parent="1">
          <mxGeometry width="50" height="50" relative="1" as="geometry">
            <mxPoint x="790" y="379.9999999999999" as="sourcePoint" />
            <mxPoint x="880" y="379.9999999999999" as="targetPoint" />
          </mxGeometry>
        </mxCell>
      </root>
    </mxGraphModel>
  </diagram>
</mxfile>
